<?xml version="1.0"?>
<svg xmlns="http://www.w3.org/2000/svg" id="tea" enable-background="new 0 0 300 300" height="512px" viewBox="0 0 300 300" width="512px" class=""><g><g><circle cx="126.053" cy="153.915" fill="#eaeaea" r="92" data-original="#EAEAEA" class=""/><g fill="#4c241d"><path d="m53.947 65.999c-2.207 0-3.998-1.787-4-3.996l-.01-8c-.002-2.209 1.785-4.002 3.994-4.004h.006c2.207 0 3.998 1.787 4 3.996l.01 8c.002 2.209-1.785 4.002-3.994 4.004-.002 0-.004 0-.006 0z" data-original="#4C241D" class="active-path" style="fill:#000000" data-old_color="#4C241D"/><path d="m53.975 89.999c-2.207 0-3.998-1.787-4-3.996l-.01-8c-.002-2.209 1.785-4.002 3.994-4.004h.006c2.207 0 3.998 1.787 4 3.996l.01 8c.002 2.209-1.785 4.002-3.994 4.004-.002 0-.004 0-.006 0z" data-original="#4C241D" class="active-path" style="fill:#000000" data-old_color="#4C241D"/><path d="m37.955 74.017c-2.207 0-3.998-1.787-4-3.994-.002-2.211 1.785-4.004 3.996-4.006l8-.01h.004c2.207 0 3.998 1.787 4 3.994.002 2.211-1.785 4.004-3.996 4.006l-8 .01s-.002 0-.004 0z" data-original="#4C241D" class="active-path" style="fill:#000000" data-old_color="#4C241D"/><path d="m61.955 73.989c-2.207 0-3.998-1.787-4-3.994-.002-2.211 1.785-4.004 3.996-4.006l8-.01h.004c2.207 0 3.998 1.787 4 3.994.002 2.211-1.785 4.004-3.996 4.006l-8 .01s-.002 0-.004 0z" data-original="#4C241D" class="active-path" style="fill:#000000" data-old_color="#4C241D"/><path d="m247.988 109.774c-7.715 0-13.994-6.27-14.002-13.984-.006-3.738 1.447-7.256 4.088-9.904 2.643-2.646 6.156-4.107 9.896-4.111h.02c3.732 0 7.24 1.451 9.885 4.088 2.646 2.641 4.105 6.154 4.111 9.895v.002c.008 7.717-6.264 14.004-13.982 14.016-.006-.002-.01-.002-.016-.002zm0-20c-.002 0-.006 0-.008 0-1.605.002-3.111.627-4.242 1.762-1.133 1.135-1.754 2.643-1.752 4.244.004 3.307 2.695 5.994 6.002 5.994h.006c3.307-.004 5.994-2.699 5.992-6.006-.004-3.306-2.695-5.994-5.998-5.994z" data-original="#4C241D" class="active-path" style="fill:#000000" data-old_color="#4C241D"/><circle cx="178.25" cy="40.246" r="4.276" data-original="#4C241D" class="active-path" style="fill:#000000" data-old_color="#4C241D"/><circle cx="58.361" cy="136.384" r="4.276" data-original="#4C241D" class="active-path" style="fill:#000000" data-old_color="#4C241D"/></g><g><path d="m234.045 153.892s3.175 62.842-60.561 91.968l-44.148.051c-63.803-28.979-63.291-92.019-63.291-92.019z" fill="#edebdc" data-original="#EDEBDC" class=""/><path d="m129.336 249.911c-.57 0-1.135-.123-1.654-.357-65.414-29.711-65.643-95.039-65.637-95.695.018-2.195 1.803-3.967 4-3.967h168c2.131 0 3.887 1.67 3.994 3.799.033.654 2.557 65.898-62.893 95.809-.52.236-1.086.361-1.658.361l-44.148.051c0-.001-.002-.001-.004-.001zm-59.117-92.019c1.055 13.916 8.463 60.188 59.988 84.018l42.396-.047c51.547-23.996 56.988-70.307 57.441-83.971z" fill="#4c241d" data-original="#4C241D" class="active-path" style="fill:#000000" data-old_color="#4c241d"/></g><path d="m174.094 193.858c-2.207 0-3.998-1.787-4-3.996l-.041-36c-.002-2.209 1.787-4.002 3.996-4.004h.004c2.207 0 3.998 1.787 4 3.996l.041 36c.002 2.209-1.787 4.002-3.996 4.004 0 0-.002 0-.004 0z" fill="#4c241d" data-original="#4C241D" class="active-path" style="fill:#000000" data-old_color="#4c241d"/><g><path d="m174.127 217.859c-6.627.008-12.006-5.359-12.014-11.986l-.019-16 24-.028.019 16c.008 6.628-5.359 12.007-11.986 12.014z" fill="#fff" data-original="#FFF"/><path d="m174.111 221.858c-4.266 0-8.277-1.658-11.299-4.672-3.025-3.018-4.693-7.035-4.699-11.309l-.02-15.998c-.002-2.211 1.785-4.004 3.994-4.006l24-.029h.006c2.207 0 3.998 1.787 4 3.996l.02 16c.01 8.822-7.158 16.008-15.982 16.018-.006 0-.012 0-.02 0zm-8.013-27.99.016 12c.002 2.137.838 4.145 2.35 5.654 1.51 1.506 3.516 2.336 5.65 2.336h.01c4.41-.006 7.996-3.598 7.99-8.01l-.016-12z" fill="#4c241d" data-original="#4C241D" class="active-path" style="fill:#000000" data-old_color="#4c241d"/></g><g><path d="m121.867 80.02c9.383 9.362 7.102 26.862 7.102 26.862s-17.495 2.322-26.878-7.04-7.102-26.862-7.102-26.862 17.495-2.322 26.878 7.04z" fill="#a9ba5a" data-original="#A9BA5A"/><path d="m124.148 111.14c-6.537 0-17.604-1.203-24.883-8.465-10.658-10.635-8.348-29.418-8.244-30.213.234-1.795 1.646-3.209 3.441-3.447.793-.109 19.572-2.457 30.229 8.174 10.658 10.633 8.348 29.416 8.244 30.211-.234 1.795-1.645 3.209-3.441 3.447-.25.033-2.31.293-5.346.293zm4.821-4.266h.041zm-30.211-30.158c-.107 5.006.502 14.652 6.16 20.295 5.314 5.301 14.615 6.246 20.281 6.135.107-5.006-.502-14.65-6.156-20.293-5.314-5.301-14.627-6.247-20.285-6.137z" fill="#4c241d" data-original="#4C241D" class="active-path" style="fill:#000000" data-old_color="#4c241d"/></g><g><path d="m217.876 87.708c-9.362 9.383-26.862 7.102-26.862 7.102s-2.322-17.495 7.04-26.878 26.862-7.102 26.862-7.102 2.322 17.495-7.04 26.878z" fill="#a9ba5a" data-original="#A9BA5A"/><path d="m195.719 99.056c-2.967 0-4.975-.248-5.223-.279-1.795-.234-3.209-1.645-3.447-3.441-.105-.793-2.459-19.57 8.174-30.229 10.631-10.656 29.418-8.348 30.211-8.244 1.795.234 3.209 1.646 3.447 3.441.105.793 2.459 19.572-8.174 30.23v-.002c-7.309 7.326-18.467 8.524-24.988 8.524zm-.969-8.016c5.02.111 14.65-.502 20.293-6.156 0-.002 0-.002 0-.002 5.635-5.646 6.229-15.27 6.111-20.283-4.99-.104-14.633.51-20.268 6.158-5.302 5.314-6.267 14.642-6.136 20.283z" fill="#4c241d" data-original="#4C241D" class="active-path" style="fill:#000000" data-old_color="#4c241d"/></g><g><path d="m180.639 107.831c5.714 11.96-2.287 27.691-2.287 27.691s-17.264-3.66-22.978-15.62 2.287-27.691 2.287-27.691 17.264 3.66 22.978 15.62z" fill="#77a052" data-original="#77A052" class=""/><path d="m178.355 139.523c-.275 0-.555-.027-.832-.088-.783-.166-19.27-4.227-25.758-17.809-6.49-13.584 1.967-30.516 2.33-31.229.818-1.615 2.623-2.486 4.395-2.1.783.166 19.27 4.225 25.758 17.809 6.49 13.584-1.967 30.516-2.33 31.229-.691 1.361-2.082 2.188-3.563 2.188zm-18.39-42.532c-1.775 4.682-4.426 13.977-.98 21.186 3.438 7.197 12.311 10.975 17.074 12.541 1.775-4.689 4.41-13.965.971-21.162-3.237-6.776-11.706-10.803-17.065-12.565z" fill="#4c241d" data-original="#4C241D" class="active-path" style="fill:#000000" data-old_color="#4c241d"/></g><path d="m138.98 64.679c-.832 0-1.674-.26-2.393-.797l-3.752-2.807c-2.262-1.693-3.676-4.279-3.879-7.096-.203-2.814.824-5.576 2.818-7.574.582-.584.672-1.506.215-2.193l-2.594-3.879c-1.227-1.836-.732-4.32 1.104-5.549 1.838-1.229 4.316-.736 5.549 1.104l2.594 3.881c2.568 3.848 2.062 9.014-1.203 12.287-.486.486-.523 1.055-.502 1.348.021.297.139.854.691 1.266l3.752 2.807c1.768 1.324 2.129 3.83.807 5.6-.785 1.047-1.988 1.602-3.207 1.602z" fill="#4c241d" data-original="#4C241D" class="active-path" style="fill:#000000" data-old_color="#4c241d"/><path d="m206.029 137.823c-1.676 0-3.236-1.061-3.795-2.736-.699-2.096.434-4.361 2.529-5.061l.984-.328c1.666-.557 2.945-1.76 3.602-3.385.709-1.76.592-3.775-.324-5.531-2.445-4.873-.514-10.689 4.248-13.078l2.936-1.473c1.973-.988 4.377-.193 5.369 1.783.99 1.975.191 4.377-1.783 5.369l-2.936 1.473c-.818.41-1.15 1.41-.74 2.227 2 3.834 2.236 8.289.648 12.225-1.523 3.775-4.615 6.684-8.484 7.979l-.988.33c-.42.14-.848.206-1.266.206z" fill="#4c241d" data-original="#4C241D" class="active-path" style="fill:#000000" data-old_color="#4c241d"/><path d="m102.031 141.942c-.6 0-1.207-.135-1.779-.42l-2.943-1.467c-2.318-1.156-3.951-3.371-4.367-5.926-.418-2.555.424-5.174 2.252-7.008l-2.961-1.59c-1.979-.984-2.781-3.387-1.797-5.363.986-1.977 3.391-2.775 5.363-1.797l2.943 1.467c2.318 1.156 3.951 3.371 4.369 5.928.416 2.555-.426 5.174-2.254 7.006l2.961 1.59c1.979.984 2.781 3.387 1.797 5.363-.699 1.405-2.113 2.217-3.584 2.217z" fill="#4c241d" data-original="#4C241D" class="active-path" style="fill:#000000" data-old_color="#4c241d"/><circle cx="120.408" cy="180.936" fill="#4c241d" r="4.276" data-original="#4C241D" class="active-path" style="fill:#000000" data-old_color="#4c241d"/><circle cx="144.408" cy="180.908" fill="#4c241d" r="4.276" data-original="#4C241D" class="active-path" style="fill:#000000" data-old_color="#4c241d"/><path d="m132.678 204.577c-3.729 0-7.447-1.475-10.199-4.396-1.514-1.607-1.438-4.141.17-5.654 1.604-1.51 4.137-1.441 5.654.17 2.27 2.408 6.074 2.525 8.482.258 1.613-1.514 4.141-1.438 5.654.17 1.516 1.609 1.438 4.141-.17 5.654-2.699 2.54-6.148 3.798-9.591 3.798z" fill="#4c241d" data-original="#4C241D" class="active-path" style="fill:#000000" data-old_color="#4c241d"/><path d="m262.045 265.892h-64c-2.209 0-4-1.791-4-4s1.791-4 4-4h64c2.209 0 4 1.791 4 4s-1.791 4-4 4z" fill="#4c241d" data-original="#4C241D" class="active-path" style="fill:#000000" data-old_color="#4c241d"/><g><path d="m206.045 261.892h-108c-8.837 0-16-7.163-16-16h140c0 8.836-7.164 16-16 16z" fill="#e7d1c4" data-original="#E7D1C4" class="" style="fill:#E7D1C4"/><path d="m206.045 265.892h-108c-11.027 0-20-8.973-20-20 0-2.209 1.791-4 4-4h140c2.209 0 4 1.791 4 4 0 11.027-8.973 20-20 20zm-119.315-16c1.65 4.656 6.1 8 11.314 8h108c5.215 0 9.664-3.344 11.314-8z" fill="#4c241d" data-original="#4C241D" class="active-path" style="fill:#000000" data-old_color="#4c241d"/></g></g></g> </svg>
