<?xml version="1.0" standalone="no"?>
<!DOCTYPE svg PUBLIC "-//W3C//DTD SVG 20010904//EN"
 "http://www.w3.org/TR/2001/REC-SVG-20010904/DTD/svg10.dtd">
<svg version="1.0" xmlns="http://www.w3.org/2000/svg"
 width="700.000000pt" height="700.000000pt" viewBox="0 0 700.000000 700.000000"
 preserveAspectRatio="xMidYMid meet">
<metadata>
Created by potrace 1.11, written by Peter Selinger 2001-2013
</metadata>
<g transform="translate(0.000000,700.000000) scale(0.100000,-0.100000)"
fill="#000000" stroke="none">
<path d="M3036 6178 c-44 -39 -43 -74 4 -147 23 -35 42 -71 42 -80 1 -9 -14
-40 -32 -69 -55 -88 -52 -192 8 -263 39 -47 152 -129 178 -129 39 0 72 21 89
57 26 54 4 95 -82 155 -25 17 -43 37 -43 48 0 10 14 42 32 70 37 60 49 148 27
203 -16 39 -63 113 -97 150 -33 35 -89 37 -126 5z"/>
<path d="M4111 6146 c-66 -37 -67 -131 -1 -169 40 -24 74 -21 108 8 93 78 -1
220 -107 161z"/>
<path d="M1195 5805 c-24 -23 -25 -29 -25 -159 l0 -134 31 -26 c41 -35 83 -34
120 3 29 29 29 30 29 151 0 156 -16 189 -93 190 -27 0 -45 -7 -62 -25z"/>
<path d="M4976 5669 c-259 -40 -433 -152 -524 -339 -68 -139 -85 -217 -86
-412 l-1 -167 28 -28 c26 -27 32 -28 146 -31 518 -15 800 252 805 763 1 140
-8 180 -47 205 -27 17 -233 23 -321 9z m184 -216 c0 -67 -27 -216 -50 -275
-61 -162 -170 -246 -368 -284 -41 -8 -100 -14 -133 -14 l-59 0 0 65 c0 199 87
385 215 460 83 49 215 82 333 84 l62 1 0 -37z"/>
<path d="M841 5446 c-55 -31 -65 -90 -22 -138 l29 -33 131 0 c128 0 131 1 157
26 38 39 36 94 -5 131 -31 27 -34 28 -149 28 -78 -1 -125 -5 -141 -14z"/>
<path d="M1403 5450 c-30 -12 -56 -65 -48 -99 3 -16 17 -39 31 -52 24 -23 33
-24 154 -24 110 0 131 3 148 18 49 44 44 125 -8 152 -33 17 -238 21 -277 5z"/>
<path d="M2225 5392 c-61 -9 -71 -15 -91 -55 -14 -26 -16 -56 -11 -186 8 -261
62 -408 196 -542 134 -134 283 -188 541 -196 241 -7 246 -3 244 222 -1 125 -6
166 -27 246 -86 329 -312 495 -697 513 -58 2 -127 1 -155 -2z m307 -207 c143
-29 260 -111 314 -217 34 -67 63 -184 71 -286 l6 -85 -99 6 c-334 18 -493 177
-511 511 l-6 99 79 -7 c43 -4 109 -13 146 -21z"/>
<path d="M1195 5245 c-24 -23 -25 -29 -25 -159 l0 -134 31 -26 c41 -35 83 -34
120 3 l29 29 0 130 c0 126 -1 130 -26 156 -36 35 -95 36 -129 1z"/>
<path d="M5700 5081 c-94 -31 -168 -95 -209 -181 -21 -45 -26 -69 -26 -135 1
-103 27 -165 99 -233 162 -153 419 -107 516 93 35 71 39 180 10 257 -27 72
-98 149 -165 179 -54 24 -179 35 -225 20z m175 -212 c66 -59 66 -150 -1 -208
-85 -75 -224 -12 -224 102 0 83 54 137 136 137 45 0 59 -5 89 -31z"/>
<path d="M3618 4917 c-28 -26 -81 -154 -104 -253 -57 -247 -29 -442 87 -596
79 -106 209 -199 369 -265 193 -80 241 -75 290 29 71 153 108 359 90 503 -18
143 -59 232 -156 335 -105 111 -233 187 -410 245 -96 31 -134 32 -166 2z m240
-237 c124 -61 227 -152 267 -235 53 -112 52 -266 -2 -438 -14 -45 -17 -48 -42
-42 -14 3 -62 24 -106 45 -279 138 -355 334 -259 668 9 28 21 52 27 52 7 0 58
-23 115 -50z"/>
<path d="M5000 4499 c-68 -37 -97 -64 -121 -111 -31 -61 -34 -114 -9 -187 26
-75 24 -149 -6 -182 -10 -12 -43 -33 -73 -47 -83 -40 -102 -109 -45 -163 66
-62 226 16 294 143 45 83 53 185 21 268 -12 30 -21 63 -21 72 0 10 23 29 59
48 86 46 106 107 52 161 -38 38 -80 38 -151 -2z"/>
<path d="M2149 4235 c-33 -18 -53 -64 -44 -104 7 -33 36 -61 84 -80 l29 -13
-24 -41 c-33 -58 -33 -135 0 -191 30 -50 118 -106 179 -113 56 -7 97 28 97 82
0 50 -12 69 -64 99 l-45 27 22 42 c15 29 22 59 22 98 -1 80 -32 125 -123 172
-76 40 -94 43 -133 22z"/>
<path d="M1330 3913 c-30 -11 -60 -47 -66 -79 -17 -93 99 -153 167 -85 73 73
-5 199 -101 164z"/>
<path d="M2779 3502 l-1276 -2 -28 -28 -28 -27 6 -110 c19 -341 149 -764 336
-1090 193 -336 472 -637 777 -837 l65 -43 -376 -5 -377 -5 -29 -33 c-34 -38
-37 -76 -14 -165 43 -165 165 -294 322 -340 44 -13 226 -16 1370 -17 725 -1
1611 -1 1970 -1 l652 1 28 24 c39 34 39 98 0 132 l-28 24 -483 0 -482 0 39 80
c33 64 41 93 45 153 9 148 14 147 -464 147 l-377 0 74 52 c189 132 377 306
512 473 316 391 516 920 534 1410 5 141 4 152 -15 175 l-20 25 -729 5 c-400 3
-1302 4 -2004 2z m1189 -514 l2 -328 -114 0 -114 0 -27 -32 -26 -31 3 -246 3
-246 29 -63 c37 -80 122 -161 203 -193 43 -17 79 -23 140 -23 74 0 88 4 157
37 113 56 182 148 205 272 6 32 11 143 11 247 0 201 -8 246 -48 267 -12 6 -68
11 -126 11 l-106 0 0 330 0 330 603 -2 602 -3 -3 -65 c-17 -349 -153 -753
-360 -1070 -206 -317 -532 -603 -886 -779 l-84 -41 -503 0 -502 0 -116 61
c-294 154 -578 383 -761 614 -211 267 -376 605 -454 930 -25 109 -56 288 -56
333 l0 22 1163 -2 1162 -3 3 -327z m282 -666 c0 -144 -2 -162 -22 -202 -13
-24 -40 -57 -60 -73 -75 -60 -193 -42 -254 38 l-29 38 -3 179 -3 178 185 0
186 0 0 -158z m813 -1172 c-9 -35 -90 -116 -140 -141 l-48 -24 -1295 -3 c-889
-2 -1311 1 -1346 8 -28 6 -72 24 -97 40 -46 29 -107 101 -107 127 0 11 250 13
1519 13 l1519 0 -5 -20z"/>
<path d="M2769 2869 c-38 -14 -64 -67 -55 -112 17 -92 141 -105 185 -20 18 36
13 71 -16 103 -31 33 -74 44 -114 29z"/>
<path d="M3321 2866 c-87 -48 -50 -186 49 -186 51 0 100 49 100 100 0 73 -85
122 -149 86z"/>
<path d="M2894 2480 c-28 -11 -64 -58 -64 -82 0 -55 73 -124 163 -154 135 -45
334 23 353 120 8 47 -17 91 -59 105 -38 13 -55 9 -110 -27 -47 -31 -113 -34
-152 -6 -38 27 -88 54 -100 53 -5 0 -20 -4 -31 -9z"/>
</g>
</svg>
